# xmcd
#
# Track frame offsets:
#	150
#	19000
#	38234
#	55412
#	72521
#	90976
#	112662
#	132904
#	151083
#	168576
#	182511
#	201505
#	222499
#	242386
#	262261
#	281376
#	301677
#	315702
#	326034
#
# Disc length: 4626 seconds
#
# Revision: 1
# Processed by: cddbd v1.5.2PL0 Copyright (c) Steve Scherf et al.
# Submitted via: audiograbber 1.83.01
#
DISCID=09121013
DTITLE=DJ GK - Academy One
DYEAR=1900
DGENRE=Rock
TTITLE0=U2 - Beautiful day
TTITLE1=Roxette - Dressed for success
TTITLE2=Roachford - Cuddly toy
TTITLE3=Alanis Morisette - ironic
TTITLE4=Natalie Imbruglia - Torn
TTITLE5=Allanah Myles - Black velvet
TTITLE6=Amanda Marshall - I believe in you
TTITLE7=John Hyatt - Have a little faith in me
TTITLE8=Johnny Lang - Missing your love
TTITLE9=Eagle-Eye Cherry - Save tonight
TTITLE10=Eurythmics - Walking on broken glass
TTITLE11=Peter Gabriel - Solsbury Hill
TTITLE12=Red hot Chili Pepers - Under the bridge
TTITLE13=Tracy Chapman and Eric Clapton - Gimme one reason
TTITLE14=Tom Petty - Free falling
TTITLE15=Something Happens - Take a parachute and jump
TTITLE16=Hans Albers - Auf der Reeperbahn, nachts um halb eins
TTITLE17=Comedian Harmonists - Mein kleiner grüner Kaktus
TTITLE18=Diebels Werbung - Ein schöner Tag
EXTD=
EXTT0=
EXTT1=
EXTT2=
EXTT3=
EXTT4=
EXTT5=
EXTT6=
EXTT7=
EXTT8=
EXTT9=
EXTT10=
EXTT11=
EXTT12=
EXTT13=
EXTT14=
EXTT15=
EXTT16=
EXTT17=
EXTT18=
PLAYORDER=
